<?xml version="1.0" encoding="UTF-8" standalone="no"?>
<svg xmlns:rdf="http://www.w3.org/1999/02/22-rdf-syntax-ns#" xmlns="http://www.w3.org/2000/svg" version="1.1" xmlns:cc="http://creativecommons.org/ns#" xmlns:xlink="http://www.w3.org/1999/xlink" viewBox="0 0 181.96 29" xmlns:dc="http://purl.org/dc/elements/1.1/">
<g transform="matrix(.67518 0 0 .67518 -26.921 -5.5932)">
<path d="m73.172 41.481h-6.641l-2.6399-6.8679h-12.086l-2.4955 6.8679h-6.476l11.776-30.235h6.4554zm-11.24-11.962-4.166-11.219-4.083 11.219z" fill="#027eae"/>
<path d="m90.806 41.481v-3.2793c-0.7974 1.1688-1.8458 2.09-3.1451 2.7637-1.2994 0.6737-2.6709 1.0106-4.1146 1.0106-1.4712 0-2.7911-0.3231-3.9598-0.9694-1.1687-0.6462-2.0143-1.5537-2.5368-2.7224s-0.7837-2.7842-0.7837-4.8466v-13.86h5.7954v10.065c0 3.0799 0.1065 4.967 0.3197 5.6613 0.2131 0.6944 0.6015 1.2444 1.1652 1.65 0.5638 0.4056 1.2787 0.6084 2.145 0.6084 0.9899 0 1.8767-0.2716 2.6605-0.8147 0.7837-0.5431 1.3199-1.2168 1.6087-2.0211 0.2887-0.8044 0.433-2.774 0.4331-5.9089v-9.2396h5.7954v21.903z" fill="#027eae"/>
<path d="m112.26 19.578v4.6198h-3.9598v8.8272c0 1.7874 0.038 2.8289 0.1134 3.1245 0.076 0.2957 0.2475 0.5397 0.5156 0.7322s0.5947 0.2887 0.9797 0.2887c0.5362 0 1.313-0.1856 2.3305-0.5568l0.495 4.4961c-1.3475 0.5774-2.8737 0.8662-4.5786 0.8662-1.045 0-1.9868-0.1753-2.8255-0.5259-0.8387-0.3507-1.454-0.8044-1.8459-1.3612-0.3918-0.5569-0.6634-1.3097-0.8146-2.2584-0.1238-0.6737-0.1857-2.0349-0.1857-4.0836v-9.549h-2.6605v-4.6198h2.6605v-4.3517l5.8161-3.3824v7.7341z" fill="#027eae"/>
<path d="m114.98 30.22c0-1.9249 0.4744-3.788 1.4231-5.5892 0.9487-1.8011 2.2927-3.1761 4.032-4.1248s3.6814-1.4231 5.8263-1.4231c3.3136 0 6.0292 1.0759 8.1466 3.2277s3.1761 4.8708 3.1761 8.1569c0 3.3136-1.069 6.0601-3.2071 8.2393-2.138 2.1793-4.8295 3.269-8.0743 3.269-2.0075 0-3.9221-0.4538-5.7439-1.3612-1.8218-0.9075-3.207-2.2377-4.1557-3.9908s-1.4231-3.8877-1.4231-6.4038zm5.9398 0.3093c0 2.1725 0.5156 3.8362 1.5468 4.9911 1.0312 1.155 2.303 1.7324 3.8155 1.7324 1.5124 0 2.7808-0.5774 3.8051-1.7324 1.0243-1.1549 1.5365-2.8324 1.5365-5.0323 0-2.1449-0.5122-3.7948-1.5365-4.9498-1.0243-1.1549-2.2927-1.7324-3.8051-1.7324-1.5125 0-2.7843 0.5775-3.8155 1.7324-1.0312 1.155-1.5468 2.8186-1.5468 4.991z" fill="#027eae"/>
<path d="m141.89 41.481v-30.235h5.7954v10.89c1.7874-2.0349 3.9048-3.0524 6.3522-3.0524 2.6674 0 4.8742 0.9659 6.6204 2.8977 1.7461 1.9318 2.6192 4.7058 2.6193 8.3219-0.0001 3.7398-0.8903 6.6204-2.6709 8.6415-1.7806 2.0212-3.9427 3.0318-6.4863 3.0318-1.2512 0-2.4852-0.3128-3.702-0.9384-1.2169-0.6256-2.2653-1.5503-3.1452-2.774v3.2174zm5.7541-11.426c0 2.2687 0.3575 3.9461 1.0725 5.0323 1.0037 1.5399 2.3374 2.3099 4.0011 2.3099 1.2787 0 2.3683-0.5465 3.2689-1.6396s1.3509-2.8152 1.3509-5.1664c0-2.5024-0.4538-4.307-1.3612-5.4138-0.9075-1.1068-2.0693-1.6603-3.4855-1.6603-1.3887 0-2.5437 0.5397-3.4649 1.619-0.9212 1.0794-1.3818 2.719-1.3818 4.9189z" fill="#027eae"/>
<path d="m172.29 26.26-5.2591-0.9487c0.5912-2.1174 1.6086-3.6848 3.0523-4.7023 1.4437-1.0174 3.5886-1.5262 6.4348-1.5262 2.5849 0 4.5098 0.306 5.7748 0.9178 1.2649 0.6119 2.1552 1.3887 2.6708 2.3305 0.5156 0.9419 0.7734 2.6709 0.7734 5.187l-0.062 6.7647c0 1.925 0.093 3.3446 0.2785 4.2589 0.1855 0.9144 0.5327 1.894 1.0415 2.939h-5.7336c-0.1512-0.385-0.3368-0.9556-0.5568-1.7118-0.096-0.3438-0.165-0.5706-0.2062-0.6806-0.99 0.9624-2.0487 1.6843-3.1762 2.1655-1.1274 0.4813-2.3305 0.7219-3.6092 0.7219-2.2549 0-4.032-0.6119-5.3314-1.8356-1.2993-1.2237-1.9489-2.7705-1.9489-4.6404 0-1.2375 0.2956-2.3409 0.8868-3.3102s1.4196-1.7118 2.4852-2.2274 2.6021-0.9659 4.6095-1.3509c2.7086-0.5087 4.5854-0.9831 5.6304-1.4231v-0.5774c0-1.1137-0.275-1.9078-0.8249-2.3821-0.55-0.4744-1.5881-0.7116-3.1143-0.7116-1.0312 0-1.8356 0.2028-2.413 0.6084-0.5775 0.4057-1.045 1.1172-1.4025 2.1346zm7.7547 4.7024c-0.7425 0.2475-1.918 0.5431-3.5267 0.8868s-2.6605 0.6806-3.1555 1.0106c-0.7562 0.5362-1.1344 1.2168-1.1343 2.0418-0.0001 0.8112 0.3024 1.5124 0.9074 2.1036 0.605 0.5913 1.375 0.8869 2.3099 0.8869 1.045 0 2.0418-0.3438 2.9905-1.0312 0.7012-0.5225 1.1618-1.1619 1.3819-1.9181 0.1512-0.495 0.2268-1.4368 0.2268-2.8255z" fill="#027eae"/>
<path d="m197.25 11.246v11.116c1.8699-2.1862 4.1042-3.2793 6.7029-3.2793 1.3336 0 2.5367 0.2475 3.6092 0.7425 1.0724 0.495 1.8802 1.1275 2.4233 1.8974 0.5431 0.77 0.9143 1.6225 1.1137 2.5574 0.1994 0.935 0.2991 2.3856 0.2991 4.3517v12.849h-5.7954v-11.57c0-2.2961-0.11-3.7536-0.33-4.3723s-0.6084-1.1103-1.1653-1.4746c-0.5568-0.3644-1.2546-0.5466-2.0933-0.5466-0.9625 0-1.8218 0.2338-2.578 0.7012-0.7563 0.4675-1.3097 1.1722-1.6603 2.114-0.3506 0.9419-0.5259 2.334-0.5259 4.1764v10.972h-5.7954v-30.235z" fill="#027eae"/>
<path d="m237.22 41.481h-5.7954v-11.178c0-2.3649-0.1238-3.8945-0.3713-4.5889-0.2475-0.6943-0.6496-1.234-1.2065-1.619-0.5568-0.385-1.2271-0.5775-2.0108-0.5775-1.0038 0-1.9043 0.275-2.7018 0.825s-1.344 1.2787-1.6396 2.1862c-0.2956 0.9074-0.4435 2.5849-0.4434 5.0323v9.9202h-5.7954v-21.903h5.3829v3.2174c1.9111-2.4749 4.3173-3.7124 7.2184-3.7124 1.2787 0 2.4474 0.2303 3.5062 0.6909 1.0586 0.4607 1.8595 1.0484 2.4027 1.7634 0.5431 0.715 0.9212 1.5262 1.1343 2.4337 0.2131 0.9074 0.3197 2.2068 0.3197 3.8979z" fill="#027eae"/>
<path d="m243.05 48.273v-30.287h2.4741v30.287z" fill="#b5db42"/>
<path d="m267.44 33.381 3.0571 0.7722c-0.6409 2.5108-1.7939 4.4254-3.459 5.7439-1.6651 1.3184-3.7006 1.9776-6.1063 1.9776-2.4898 0-4.5148-0.5068-6.0748-1.5206-1.5601-1.0138-2.7472-2.482-3.5614-4.4045s-1.2213-3.9868-1.2213-6.193c0-2.4057 0.4596-4.5042 1.3789-6.2954 0.9192-1.7912 2.2271-3.1517 3.9238-4.0814 1.6966-0.9297 3.564-1.3946 5.6021-1.3946 2.3112 0 4.2547 0.5883 5.8305 1.7649s2.6737 2.8313 3.2935 4.9639l-3.0098 0.7091c-0.5358-1.6809-1.3132-2.9048-2.3323-3.6717-1.019-0.7669-2.3007-1.1503-3.845-1.1504-1.7754 0.0001-3.2593 0.4255-4.4517 1.2765-1.1924 0.8509-2.0302 1.9934-2.5135 3.4274-0.4832 1.434-0.7248 2.9127-0.7248 4.436 0 1.9645 0.2862 3.6795 0.8588 5.145 0.5725 1.4656 1.4629 2.5608 2.671 3.2856 1.2082 0.7249 2.5161 1.0874 3.9238 1.0874 1.7124 0 3.1622-0.4938 4.3493-1.4813s1.9908-2.453 2.4111-4.3966z" fill="#666"/>
<path d="m273.92 47.895v-23.149h2.5844v2.1746c0.6093-0.8509 1.2974-1.4891 2.0643-1.9146s1.6966-0.6382 2.7892-0.6382c1.4288 0 2.6894 0.3677 3.782 1.1031s1.9173 1.7728 2.4741 3.1122c0.5568 1.3395 0.8351 2.8076 0.8352 4.4045-0.0001 1.7124-0.3073 3.2541-0.9219 4.625-0.6146 1.371-1.5076 2.4216-2.6789 3.1517-1.1714 0.7301-2.4032 1.0952-3.6953 1.0952-0.9455 0-1.7939-0.1996-2.545-0.5988s-1.3683-0.9035-1.8516-1.5128v8.147zm2.5686-14.687c0 2.1536 0.436 3.7452 1.308 4.7747 0.8719 1.0296 1.9277 1.5444 3.1674 1.5444 1.2606 0 2.3401-0.5332 3.2383-1.5995s1.3473-2.7183 1.3473-4.956c0-2.1326-0.4386-3.7294-1.3158-4.7905s-1.9251-1.5916-3.1438-1.5916c-1.2081 0-2.277 0.5647-3.2068 1.694-0.9297 1.1294-1.3946 2.7709-1.3946 4.9245z" fill="#666"/>
<path d="m291.88 47.895v-23.149h2.5843v2.1746c0.6094-0.8509 1.2975-1.4891 2.0644-1.9146s1.6966-0.6382 2.7892-0.6382c1.4287 0 2.6894 0.3677 3.782 1.1031 1.0925 0.7354 1.9172 1.7728 2.474 3.1122 0.5568 1.3395 0.8352 2.8076 0.8352 4.4045 0 1.7124-0.3073 3.2541-0.9218 4.625-0.6146 1.371-1.5076 2.4216-2.6789 3.1517-1.1714 0.7301-2.4032 1.0952-3.6954 1.0952-0.9455 0-1.7938-0.1996-2.5449-0.5988-0.7512-0.3992-1.3684-0.9035-1.8516-1.5128v8.147zm2.5686-14.687c0 2.1536 0.436 3.7452 1.3079 4.7747 0.872 1.0296 1.9278 1.5444 3.1674 1.5444 1.2607 0 2.3401-0.5332 3.2384-1.5995 0.8982-1.0663 1.3473-2.7183 1.3473-4.956 0-2.1326-0.4386-3.7294-1.3158-4.7905s-1.9252-1.5916-3.1438-1.5916c-1.2081 0-2.2771 0.5647-3.2068 1.694-0.9298 1.1294-1.3946 2.7709-1.3946 4.9245z" fill="#666"/>
</g>
</svg>
